/* XPM */
static char * test1_xpm[] = {
"16 15 68 1",
" 	c None",
".	c #272717",
"+	c #292917",
"@	c #2A2A17",
"#	c #262617",
"$	c #4B4B13",
"%	c #76760E",
"&	c #8B8B0C",
"*	c #90900B",
"=	c #8E8E0C",
"-	c #7B7B0E",
";	c #4D4D13",
">	c #A1A10A",
",	c #D9D904",
"'	c #EAEA02",
")	c #ECEC01",
"!	c #EBEB02",
"~	c #DCDC03",
"{	c #A3A309",
"]	c #4C4C13",
"^	c #77770E",
"/	c #F9F900",
"(	c #FFFF00",
"_	c #A2A209",
":	c #2F2F16",
"<	c #191919",
"[	c #EEEE01",
"}	c #69690F",
"|	c #282816",
"1	c #2D2D16",
"2	c #9C9C0A",
"3	c #8C8C0C",
"4	c #252517",
"5	c #CCCC04",
"6	c #FEFE00",
"7	c #6A6A0F",
"8	c #70700E",
"9	c #EAEA01",
"0	c #7F7F0D",
"a	c #2B2B17",
"b	c #565611",
"c	c #434313",
"d	c #86860C",
"e	c #E6E602",
"f	c #292916",
"g	c #EDED01",
"h	c #91910B",
"i	c #FCFC00",
"j	c #C4C405",
"k	c #75750E",
"l	c #414114",
"m	c #EFEF01",
"n	c #CECE04",
"o	c #242417",
"p	c #666610",
"q	c #7D7D0D",
"r	c #F1F100",
"s	c #E2E202",
"t	c #2C2C16",
"u	c #636310",
"v	c #2F2F15",
"w	c #AAAA08",
"x	c #FDFD00",
"y	c #DADA03",
"z	c #DDDD03",
"A	c #8F8F0C",
"B	c #7D7D0E",
"C	c #4E4E13",
"   .+@@@@@@@#   ",
" .$%&******=-;. ",
" $>,'))))))!~{] ",
".^,/((((((((/,^.",
"+&'_:<<([}|12'3@",
"@*)456((789[0)*a",
"@*)bcde(fg(<<[ha",
"@*)ijkl(|m((<[ha",
"@*)(6no(pqrs<[ha",
"@*)<<t2(9u#vw)*a",
"@3'x(((((((((!3@",
".^,/((((((((/y^.",
" $>,![[[[[[)z{] ",
" .]^3hhhhhhABC. ",
"   .@aaaaaa@#   "};
